<svg width="128" height="128" viewBox="0 0 128 128" fill="none" xmlns="http://www.w3.org/2000/svg">
<rect width="128" height="128" fill="black"/>
<path d="M35.5585 57.1992C37.7369 53.6098 41.6834 51.2121 46.1888 51.2121C50.6941 51.2121 54.6372 53.6098 56.8156 57.1992H70.4272C67.6264 46.4132 57.8482 38.4563 46.1888 38.4563C42.4543 38.4563 38.9144 39.2697 35.7317 40.7338V20.099H22.1909V57.1992H35.5585Z" fill="#FFF500"/>
<path d="M81.0437 38.7428C74.3422 38.7428 68.2561 41.3774 63.7578 45.66C66.9264 48.7826 69.2675 52.7433 70.4239 57.1815L70.4275 57.1851C72.6165 53.6381 76.5666 51.2829 81.0437 51.2829C85.5208 51.2829 89.4427 53.6522 91.6281 57.1992H105.233C102.333 46.5617 92.6006 38.7428 81.0437 38.7428" fill="white"/>
<path d="M105.031 70.4854L105.042 70.1423H91.6709C89.496 73.7317 85.5494 76.1294 81.044 76.1294C76.5387 76.1294 72.5956 73.7317 70.4172 70.1423H56.7773C59.5817 80.9247 69.3845 88.8851 81.044 88.8851C84.7749 88.8851 88.3148 88.0682 91.5011 86.6042L91.8194 86.4698C90.2068 91.4597 85.5246 95.0703 80.0008 95.0703C79.488 95.0703 78.9858 95.0279 78.4872 94.9642V107.554C78.9893 107.582 79.4915 107.61 80.0008 107.61C93.6406 107.61 104.724 96.7218 105.056 83.1668H105.074V70.4854H105.031Z" fill="white"/>
<path d="M56.784 70.1672H56.7556C54.5666 73.7 50.6518 76.0552 46.1889 76.0552C41.7118 76.0552 37.7936 73.6894 35.6046 70.1388H22C24.9034 80.7763 34.632 88.5988 46.1889 88.5988C52.8868 88.5988 58.9694 85.9677 63.4641 81.6851C60.292 78.5661 57.9439 74.6053 56.784 70.1672" fill="#FFF500"/>
</svg>
